<?xml version="1.0" standalone="no"?>
<!DOCTYPE svg PUBLIC "-//W3C//DTD SVG 20010904//EN"
 "http://www.w3.org/TR/2001/REC-SVG-20010904/DTD/svg10.dtd">
<svg version="1.0" xmlns="http://www.w3.org/2000/svg"
 width="700.000000pt" height="700.000000pt" viewBox="0 0 700.000000 700.000000"
 preserveAspectRatio="xMidYMid meet">
<metadata>
Created by potrace 1.14, written by Peter Selinger 2001-2017
</metadata>
<g transform="translate(0.000000,700.000000) scale(0.100000,-0.100000)"
fill="#000000" stroke="none">
<path d="M3440 6718 c-72 -46 -146 -91 -175 -108 -16 -10 -309 -190 -650 -400
-341 -211 -658 -406 -705 -435 -301 -184 -1144 -703 -1185 -729 -27 -18 -101
-64 -163 -102 -62 -38 -125 -77 -140 -86 -15 -9 -37 -23 -50 -30 -132 -76
-345 -214 -357 -231 -13 -19 -15 -152 -15 -1097 0 -833 3 -1080 13 -1099 7
-13 86 -69 187 -131 181 -111 361 -221 970 -595 195 -120 535 -328 755 -463
220 -135 526 -323 680 -417 400 -245 618 -379 753 -462 64 -40 125 -73 135
-73 9 0 110 58 225 129 342 212 1373 849 1587 981 206 126 293 180 380 235 72
46 432 268 453 280 10 6 199 122 421 260 336 207 406 255 416 280 9 22 11 296
10 1075 -1 602 3 1050 8 1057 10 13 0 51 -17 68 -6 6 -71 46 -143 90 -73 44
-197 119 -275 167 -79 48 -172 105 -208 126 -36 21 -125 76 -198 120 -73 45
-135 82 -137 82 -2 0 -31 18 -64 40 -33 22 -63 40 -66 40 -3 0 -18 9 -33 19
-15 11 -155 97 -312 192 -157 95 -298 183 -315 195 -26 19 -445 277 -500 308
-11 6 -40 25 -65 41 -25 16 -54 33 -65 39 -11 6 -72 43 -135 82 -135 84 -629
387 -811 497 -69 42 -137 77 -150 77 -13 0 -40 -10 -59 -22z m1700 -2210 l-1
-963 -116 -70 c-63 -38 -134 -82 -157 -96 -22 -15 -295 -183 -606 -374 -311
-191 -589 -363 -619 -382 -29 -19 -56 -32 -59 -29 -9 10 -6 1916 4 1925 5 5
151 95 324 201 173 106 338 207 365 225 28 17 130 81 228 141 97 60 188 116
202 124 13 8 59 36 102 62 43 26 132 81 198 122 66 41 123 75 128 76 4 0 7
-433 7 -962z m-1719 -120 c0 -13 1 -446 2 -963 l0 -939 -109 -68 c-60 -38
-129 -81 -154 -97 -37 -23 -550 -341 -600 -372 -8 -5 -43 -26 -77 -46 -34 -21
-184 -113 -333 -206 -148 -92 -272 -167 -275 -167 -3 0 -5 433 -5 963 l0 962
108 66 c616 380 1172 724 1192 738 14 9 69 43 123 75 54 33 100 63 103 68 10
16 24 8 25 -14z m3425 -942 l0 -964 -110 -67 c-61 -36 -241 -148 -401 -247
-159 -99 -339 -210 -400 -247 -60 -38 -225 -139 -365 -226 -140 -87 -260 -160
-267 -162 -9 -4 -11 221 -10 958 l2 963 115 72 c63 39 212 131 330 204 118 73
240 149 270 168 30 20 64 40 75 46 11 6 79 48 150 92 72 45 227 141 345 214
118 73 224 139 235 146 11 7 23 13 26 13 3 1 5 -433 5 -963z m-1707 -1051 l-1
-964 -286 -177 c-158 -97 -296 -182 -306 -188 -11 -6 -25 -15 -30 -19 -34 -26
-932 -574 -935 -571 -2 2 -5 436 -5 963 l-1 960 85 52 c47 29 130 80 185 114
55 34 274 169 487 301 213 131 396 244 405 249 24 13 130 79 278 170 66 41
121 74 123 75 1 0 2 -434 1 -965z"/>
</g>
</svg>
