<svg 
xmlns="http://www.w3.org/2000/svg" 
xmlns:xlink="http://www.w3.org/1999/xlink" 
 version="1.1" x="0px" y="0px" viewBox="0 0 64 64" style="enable-background:new 0 0 64 64;" xml:space="preserve">
  <g>
    <path d="M57,11h-9.5C45.9,5.7,40.3,2.8,35,4.5c-3.1,1-5.6,3.4-6.5,6.5H7c-1.7,0-3,1.3-3,3s1.3,3,3,3h21.5c1.7,5.3,7.3,8.2,12.5,6.5   c3.1-1,5.6-3.4,6.5-6.5H57c1.7,0,3-1.3,3-3S58.7,11,57,11z M38,18c-2.2,0-4-1.8-4-4s1.8-4,4-4s4,1.8,4,4S40.2,18,38,18z" />
    <path d="M57,29H26.5c-1.7-5.3-7.3-8.2-12.5-6.5c-3.1,1-5.6,3.4-6.5,6.5H7c-1.7,0-3,1.3-3,3c0,1.7,1.3,3,3,3h0.5   c1.7,5.3,7.3,8.2,12.5,6.5c3.1-1,5.6-3.4,6.5-6.5H57c1.7,0,3-1.3,3-3C60,30.3,58.7,29,57,29z M17,36c-2.2,0-4-1.8-4-4s1.8-4,4-4   s4,1.8,4,4S19.2,36,17,36z" />
    <path d="M57,47h-1.5c-1.7-5.3-7.3-8.2-12.5-6.5c-3.1,1-5.6,3.4-6.5,6.5H7c-1.7,0-3,1.3-3,3s1.3,3,3,3h29.5   c1.7,5.3,7.3,8.2,12.5,6.5c3.1-1,5.6-3.4,6.5-6.5H57c1.7,0,3-1.3,3-3S58.7,47,57,47z M46,54c-2.2,0-4-1.8-4-4s1.8-4,4-4s4,1.8,4,4   S48.2,54,46,54z" />
  </g>
</svg>